<svg width="18" height="14" viewBox="0 0 18 14" fill="none" xmlns="http://www.w3.org/2000/svg">
<path d="M0.645504 9.6088C0.645504 10.2013 0.799102 10.7608 1.1063 11.2874C1.40252 11.814 1.82492 12.2419 2.37349 12.5711C2.91108 12.8892 3.50353 13.0483 4.15084 13.0483C5.51128 13.0483 6.55904 12.5162 7.29412 11.452C8.0292 10.3878 8.39674 9.18641 8.39674 7.84791C8.39674 7.11283 8.25411 6.36129 7.96885 5.5933C7.6836 4.81434 7.23926 4.08475 6.63584 3.40453C6.02145 2.7243 5.20408 2.13185 4.18375 1.62717C3.15245 1.12249 1.97303 0.782381 0.645504 0.60684V1.66009C1.60001 2.02214 2.27474 2.59813 2.66971 3.38807C3.05371 4.16703 3.2457 5.05022 3.2457 6.03764V6.36678C1.51224 6.86049 0.645504 7.94116 0.645504 9.6088ZM9.71329 9.6088C9.71329 10.2013 9.86689 10.7608 10.1741 11.2874C10.4703 11.814 10.8927 12.2419 11.4413 12.5711C11.9789 12.8892 12.5713 13.0483 13.2186 13.0483C14.5791 13.0483 15.6268 12.5162 16.3619 11.452C17.097 10.3878 17.4645 9.18641 17.4645 7.84791C17.4645 7.11283 17.3219 6.36129 17.0366 5.5933C16.7514 4.81434 16.3071 4.08475 15.7036 3.40453C15.0892 2.7243 14.2719 2.13185 13.2515 1.62717C12.2202 1.12249 11.0408 0.782381 9.71329 0.60684V1.66009C10.6678 2.02214 11.3425 2.59813 11.7375 3.38807C12.1215 4.16703 12.3135 5.05022 12.3135 6.03764V6.36678C10.58 6.86049 9.71329 7.94116 9.71329 9.6088Z" fill="black"/>
</svg>
