<svg width="8" height="14" viewBox="0 0 8 14" fill="none" xmlns="http://www.w3.org/2000/svg">
<path d="M0.293 0.636048C0.105529 0.823576 0.000213623 1.07788 0.000213623 1.34305C0.000213623 1.60821 0.105529 1.86252 0.293 2.05005L5.243 7.00005L0.293 11.95C0.110842 12.1387 0.0100473 12.3913 0.0123258 12.6535C0.0146042 12.9156 0.119773 13.1665 0.305182 13.3519C0.49059 13.5373 0.741402 13.6424 1.0036 13.6447C1.2658 13.647 1.5184 13.5462 1.707 13.364L7.364 7.70705C7.55147 7.51952 7.65679 7.26521 7.65679 7.00005C7.65679 6.73488 7.55147 6.48058 7.364 6.29305L1.707 0.636048C1.51947 0.448577 1.26516 0.343262 1 0.343262C0.734836 0.343262 0.480528 0.448577 0.293 0.636048Z" fill="#F66061"/>
</svg>
