<svg width="18" height="13" viewBox="0 0 18 13" fill="none" xmlns="http://www.w3.org/2000/svg">
<path d="M17.4752 9.26493C17.4752 9.85738 17.3216 10.4169 17.0144 10.9435C16.7182 11.4702 16.2958 11.898 15.7472 12.2272C15.2096 12.5454 14.6172 12.7044 13.9699 12.7044C12.6094 12.7044 11.5617 12.1723 10.8266 11.1081C10.0915 10.0439 9.72398 8.84253 9.72398 7.50403C9.72398 6.76896 9.86661 6.01742 10.1519 5.24943C10.4371 4.47047 10.8815 3.74087 11.4849 3.06065C12.0993 2.38043 12.9166 1.78798 13.937 1.2833C14.9683 0.77862 16.1477 0.438509 17.4752 0.262968V1.31621C16.5207 1.67827 15.846 2.25426 15.451 3.0442C15.067 3.82316 14.875 4.70635 14.875 5.69377V6.02291C16.6085 6.51662 17.4752 7.59729 17.4752 9.26493ZM8.40742 9.26493C8.40742 9.85738 8.25382 10.4169 7.94663 10.9435C7.6504 11.4702 7.228 11.898 6.67944 12.2272C6.14184 12.5454 5.54939 12.7044 4.90209 12.7044C3.54164 12.7044 2.49388 12.1723 1.75881 11.1081C1.02373 10.0439 0.656188 8.84253 0.656188 7.50403C0.656188 6.76896 0.798815 6.01742 1.08407 5.24943C1.36932 4.47047 1.81366 3.74087 2.41708 3.06065C3.03148 2.38043 3.84884 1.78798 4.86917 1.2833C5.90048 0.77862 7.07989 0.438509 8.40742 0.262968V1.31621C7.45292 1.67827 6.77818 2.25426 6.38321 3.0442C5.99922 3.82316 5.80722 4.70635 5.80722 5.69377V6.02291C7.54069 6.51662 8.40742 7.59729 8.40742 9.26493Z" fill="black"/>
</svg>
