<svg width="20" height="17" viewBox="0 0 20 17" fill="none" xmlns="http://www.w3.org/2000/svg">
<path d="M2.80567 16.1944C2.28239 16.1944 1.83459 16.0082 1.46227 15.6359C1.08931 15.2629 0.902832 14.8148 0.902832 14.2915V2.87451C0.902832 2.35123 1.08931 1.90343 1.46227 1.53111C1.83459 1.15816 2.28239 0.97168 2.80567 0.97168H18.0283C18.5516 0.97168 18.9997 1.15816 19.3727 1.53111C19.745 1.90343 19.9312 2.35123 19.9312 2.87451V14.2915C19.9312 14.8148 19.745 15.2629 19.3727 15.6359C18.9997 16.0082 18.5516 16.1944 18.0283 16.1944H2.80567ZM10.417 9.36793C10.4963 9.36793 10.5794 9.35588 10.6663 9.33178C10.7538 9.30831 10.8372 9.27279 10.9165 9.22522L17.6478 5.0152C17.7746 4.93592 17.8698 4.83697 17.9332 4.71836C17.9966 4.59912 18.0283 4.46814 18.0283 4.32542C18.0283 4.00829 17.8936 3.77043 17.624 3.61186C17.3544 3.45329 17.0769 3.46122 16.7915 3.63565L10.417 7.6316L4.04251 3.63565C3.75708 3.46122 3.47959 3.4571 3.21002 3.62328C2.94045 3.79009 2.80567 4.02414 2.80567 4.32542C2.80567 4.48399 2.83738 4.62258 2.90081 4.74119C2.96424 4.86044 3.05938 4.95177 3.18623 5.0152L9.91751 9.22522C9.99679 9.27279 10.0802 9.30831 10.1677 9.33178C10.2546 9.35588 10.3377 9.36793 10.417 9.36793Z" fill="#555555"/>
</svg>
