<svg width="52" height="52" viewBox="0 0 52 52" fill="none" xmlns="http://www.w3.org/2000/svg">
<circle cx="26" cy="26" r="26" fill="#3B5998"/>
<path d="M37.565 12.5574H14.4351C13.6424 12.5574 13 13.1987 13 13.99V37.0818C13 37.8728 13.6424 38.5141 14.4351 38.5141H26.8873V28.4624H23.499V24.5451H26.8873V21.6559C26.8873 18.3032 28.9384 16.4779 31.9342 16.4779C33.3692 16.4779 34.6024 16.5843 34.9621 16.6322V20.136L32.8843 20.1371C31.2549 20.1371 30.9397 20.91 30.9397 22.0442V24.5454H34.8252L34.3193 28.4627H30.9397V38.5141H37.5653C38.3576 38.5141 39 37.8728 39 37.0814V13.99C39 13.1987 38.3576 12.5574 37.565 12.5574Z" fill="white"/>
</svg>
