<svg width="52" height="52" viewBox="0 0 52 52" fill="none" xmlns="http://www.w3.org/2000/svg">
<circle cx="26" cy="26" r="26" fill="#3F729B"/>
<path d="M32.2189 23.8605C32.2189 27.3874 29.355 30.2466 25.8222 30.2466C22.2894 30.2466 19.4255 27.3874 19.4255 23.8605C19.4255 22.8667 19.6595 21.9297 20.0648 21.0913H12.9999V36.0253C12.9999 37.3943 14.1219 38.5143 15.4931 38.5143H36.1506C37.5219 38.5143 38.6438 37.3943 38.6438 36.0253V21.0913H31.5793C31.9849 21.9297 32.2189 22.8667 32.2189 23.8605Z" fill="white"/>
<path d="M36.1507 12.5574H15.4932C14.1219 12.5574 13 13.6774 13 15.0464V20.0244H20.7163C21.8838 18.478 23.733 17.4742 25.8219 17.4742C27.9108 17.4742 29.76 18.478 30.9275 20.0244H38.6438V15.0464C38.6438 13.6774 37.5219 12.5574 36.1507 12.5574ZM15.0501 18.8567H14.1219V15.2672C14.1219 14.6392 14.5052 14.1013 15.0504 13.8726V18.8567H15.0501ZM16.5709 18.8567H15.6915V13.7549H16.5709V18.8567ZM18.0914 18.8567H17.212V13.7549H18.0914V18.8567ZM19.6108 15.2672V17.3444V18.8567H18.7325V13.7549H19.6108V15.2672ZM37.3442 17.3444C37.3442 18.18 36.6661 18.8567 35.8301 18.8567H33.3694C32.5331 18.8567 31.855 18.18 31.855 17.3444V15.2672C31.855 14.4316 32.5331 13.7549 33.3694 13.7549H35.8301C36.6664 13.7549 37.3442 14.4316 37.3442 15.2672V17.3444Z" fill="white"/>
<path d="M25.8222 29.4997C28.9337 29.4997 31.456 26.9805 31.456 23.8749C31.456 20.769 28.934 18.2498 25.8222 18.2498C22.71 18.2498 20.1877 20.769 20.1877 23.8749C20.1877 26.9801 22.71 29.4997 25.8222 29.4997V29.4997ZM25.8218 19.3933C28.3007 19.3933 30.3109 21.3998 30.3109 23.8749C30.3109 26.3497 28.3011 28.3565 25.8218 28.3565C23.3426 28.3565 21.3328 26.35 21.3328 23.8749C21.3331 21.3994 23.3429 19.3933 25.8218 19.3933Z" fill="white"/>
</svg>
