<svg width="15" height="20" viewBox="0 0 15 20" fill="none" xmlns="http://www.w3.org/2000/svg">
<path d="M7.417 9.27723C6.78617 9.27723 6.18118 9.02664 5.73512 8.58057C5.28905 8.13451 5.03846 7.52952 5.03846 6.89869C5.03846 6.26786 5.28905 5.66287 5.73512 5.2168C6.18118 4.77074 6.78617 4.52015 7.417 4.52015C8.04783 4.52015 8.65282 4.77074 9.09888 5.2168C9.54495 5.66287 9.79554 6.26786 9.79554 6.89869C9.79554 7.21104 9.73402 7.52034 9.61449 7.80892C9.49495 8.0975 9.31975 8.3597 9.09888 8.58057C8.87801 8.80144 8.61581 8.97664 8.32723 9.09618C8.03865 9.21571 7.72935 9.27723 7.417 9.27723ZM7.417 0.23877C5.65068 0.23877 3.9567 0.940437 2.70773 2.18941C1.45875 3.43839 0.75708 5.13237 0.75708 6.89869C0.75708 11.8936 7.417 19.2671 7.417 19.2671C7.417 19.2671 14.0769 11.8936 14.0769 6.89869C14.0769 5.13237 13.3752 3.43839 12.1263 2.18941C10.8773 0.940437 9.18332 0.23877 7.417 0.23877Z" fill="#555555"/>
</svg>
