<svg width="18" height="18" viewBox="0 0 18 18" fill="none" xmlns="http://www.w3.org/2000/svg">
<path d="M16.9808 17.3804C14.9352 17.3804 12.9414 16.9243 10.9992 16.0123C9.05641 15.1008 7.33593 13.8957 5.83777 12.3969C4.33897 10.8987 3.13384 9.17822 2.22239 7.23543C1.31029 5.29327 0.854248 3.29942 0.854248 1.25387C0.854248 0.968446 0.94939 0.730591 1.13967 0.540308C1.32996 0.350024 1.56781 0.254883 1.85324 0.254883H5.70647C5.92847 0.254883 6.12668 0.326239 6.30111 0.468952C6.47554 0.611664 6.57861 0.794019 6.61032 1.01602L7.22874 4.34598C7.26046 4.56797 7.25665 4.76999 7.21732 4.95203C7.17736 5.1347 7.08603 5.29739 6.94332 5.4401L4.65992 7.77108C5.32591 8.91278 6.1584 9.98312 7.15739 10.9821C8.15637 11.9811 9.25843 12.8453 10.4636 13.5747L12.6994 11.3389C12.8421 11.1962 13.0286 11.089 13.2588 11.0173C13.4884 10.9463 13.7142 10.9266 13.9362 10.9583L17.2186 11.6243C17.4406 11.6719 17.623 11.7788 17.7657 11.9449C17.9084 12.1118 17.9798 12.3062 17.9798 12.5282V16.3814C17.9798 16.6668 17.8846 16.9047 17.6943 17.095C17.504 17.2852 17.2662 17.3804 16.9808 17.3804Z" fill="#555555"/>
</svg>
