<svg width="52" height="52" viewBox="0 0 52 52" fill="none" xmlns="http://www.w3.org/2000/svg">
<circle cx="26" cy="26" r="26" fill="#00ACEE"/>
<path d="M38 17.8573C37.117 18.2481 36.1683 18.5123 35.1722 18.6308C36.1885 18.0225 36.9696 17.0592 37.3368 15.9119C36.3855 16.4751 35.3314 16.8846 34.2103 17.1043C33.3124 16.1497 32.0326 15.5522 30.6164 15.5522C27.8973 15.5522 25.6925 17.7528 25.6925 20.4679C25.6925 20.8528 25.7362 21.2284 25.8203 21.5884C21.728 21.3833 18.1001 19.4262 15.6715 16.4518C15.2476 17.178 15.0048 18.0228 15.0048 18.9233C15.0048 20.6288 15.8741 22.1329 17.1953 23.0147C16.3884 22.9889 15.6291 22.7677 14.9653 22.3999C14.9646 22.4204 14.9646 22.4407 14.9646 22.4618C14.9646 24.8428 16.6617 26.8295 18.9139 27.2816C18.5009 27.3933 18.0661 27.4537 17.617 27.4537C17.2994 27.4537 16.9912 27.4232 16.6904 27.3657C17.3169 29.3182 19.1352 30.7398 21.2898 30.7797C19.6046 32.0977 17.4817 32.884 15.1747 32.884C14.7773 32.884 14.3855 32.861 14 32.8153C16.1789 34.2099 18.7671 35.0232 21.5476 35.0232C30.6042 35.0232 35.5568 27.5334 35.5568 21.0383C35.5568 20.8254 35.5518 20.6129 35.5424 20.4016C36.5052 19.709 37.3402 18.843 38 17.8573Z" fill="white"/>
</svg>
